HIERARCHY
ROOT joint_0
{
	OFFSET 0.000000 0.000000 0.000000
	CHANNELS 6 Xposition Yposition Zposition Zrotation Yrotation Xrotation 
	JOINT joint_1
	{
		OFFSET 6.579712 -2.778931 100.531982
		CHANNELS 3 Zrotation Yrotation Xrotation
		JOINT joint_2
		{
			OFFSET -3.313232 -1.302856 91.974976
			CHANNELS 3 Zrotation Yrotation Xrotation
			JOINT joint_3
			{
				OFFSET -3.421509 -1.641846 91.864014
				CHANNELS 3 Zrotation Yrotation Xrotation
				JOINT joint_4
				{
					OFFSET 7.697388 -4.642578 123.278931
					CHANNELS 3 Zrotation Yrotation Xrotation
					JOINT joint_5
					{
						OFFSET 24.842529 -5.941528 79.695068
						CHANNELS 3 Zrotation Yrotation Xrotation
						End Site
						{
							OFFSET 0.000000 0.000000 0.000000
						}
					}
				}
				JOINT joint_6
				{
					OFFSET -0.159668 -29.112976 68.364014
					CHANNELS 3 Zrotation Yrotation Xrotation
					JOINT joint_7
					{
						OFFSET -18.356079 -115.987061 -20.069092
						CHANNELS 3 Zrotation Yrotation Xrotation
						JOINT joint_8
						{
							OFFSET 31.719482 -11.733276 -267.170898
							CHANNELS 3 Zrotation Yrotation Xrotation
							JOINT joint_9
							{
								OFFSET 29.329956 -5.879517 -234.654053
								CHANNELS 3 Zrotation Yrotation Xrotation
								End Site
								{
									OFFSET 0.000000 0.000000 0.000000
								}
							}
						}
					}
				}
				JOINT joint_10
				{
					OFFSET 8.802979 23.897949 69.798950
					CHANNELS 3 Zrotation Yrotation Xrotation
					JOINT joint_11
					{
						OFFSET 21.159058 115.524292 -19.981934
						CHANNELS 3 Zrotation Yrotation Xrotation
						JOINT joint_12
						{
							OFFSET 18.809204 5.403442 -268.593018
							CHANNELS 3 Zrotation Yrotation Xrotation
							JOINT joint_13
							{
								OFFSET 20.807861 0.421265 -235.639038
								CHANNELS 3 Zrotation Yrotation Xrotation
								End Site
								{
									OFFSET 0.000000 0.000000 0.000000
								}
							}
						}
					}
				}
			}
		}
	}
	JOINT joint_14
	{
		OFFSET -9.713379 -79.513916 -99.348022
		CHANNELS 3 Zrotation Yrotation Xrotation
		JOINT joint_15
		{
			OFFSET -40.607788 -6.518372 -502.938019
			CHANNELS 3 Zrotation Yrotation Xrotation
			JOINT joint_16
			{
				OFFSET -19.807617 -7.437378 -399.590012
				CHANNELS 3 Zrotation Yrotation Xrotation
				JOINT joint_17
				{
					OFFSET 171.701660 -44.751282 -77.782000
					CHANNELS 3 Zrotation Yrotation Xrotation
					End Site
					{
						OFFSET 0.000000 0.000000 0.000000
					}
				}
			}
		}
	}
	JOINT joint_18
	{
		OFFSET 17.854858 79.618652 -98.128052
		CHANNELS 3 Zrotation Yrotation Xrotation
		JOINT joint_19
		{
			OFFSET -24.848877 16.861816 -503.722992
			CHANNELS 3 Zrotation Yrotation Xrotation
			JOINT joint_20
			{
				OFFSET -30.162476 14.470093 -398.750008
				CHANNELS 3 Zrotation Yrotation Xrotation
				JOINT joint_21
				{
					OFFSET 176.096680 -10.987549 -80.021000
					CHANNELS 3 Zrotation Yrotation Xrotation
					End Site
					{
						OFFSET 0.000000 0.000000 0.000000
					}
				}
			}
		}
	}
}
MOTION
Frames: 7
Frame Time: 0.016667
-1693.096558 858.776733 1096.994995 12.794194 0.032177 -0.431964 -0.449150 -2.123980 -0.666936 -0.372057 0.300929 0.071468 -0.390877 -0.409035 -0.103900 0.357944 1.836027 -0.739808 0.000000 0.000000 0.000000 1.699418 4.297097 1.256208 -0.106537 4.538212 1.807819 -0.109895 -4.059818 -1.576710 0.000000 0.000000 0.000000 0.632604 1.461944 2.118684 -0.119746 2.118755 -2.195691 0.033024 -1.506421 0.711741 0.000000 0.000000 0.000000 0.702800 0.067424 -0.199434 0.464146 1.023726 2.595747 0.725643 -2.344659 -0.283206 0.000000 0.000000 0.000000 -0.033083 1.345958 0.183565 0.019744 0.085888 -1.475503 -0.145142 -1.847341 -0.180865 0.000000 0.000000 0.000000 
-1693.272949 858.800903 1096.849976 12.785738 0.034859 -0.443439 -0.447336 -2.090273 -0.641169 -0.372357 0.293427 0.068730 -0.390771 -0.401717 -0.102256 0.358971 1.840425 -0.742930 0.000000 0.000000 0.000000 1.680018 4.295809 1.249161 -0.105986 4.531692 1.811829 -0.109810 -4.071933 -1.577034 0.000000 0.000000 0.000000 0.677901 1.447407 2.215483 -0.128196 2.134075 -2.312287 0.033300 -1.509811 0.717508 0.000000 0.000000 0.000000 0.705023 0.045502 -0.202853 0.463624 1.043383 2.620843 0.728154 -2.361560 -0.286488 0.000000 0.000000 0.000000 -0.022723 1.323669 0.197252 0.032020 0.105682 -1.478843 -0.134238 -1.846288 -0.175839 0.000000 0.000000 0.000000 
-1693.422729 858.807617 1096.620972 12.772764 0.050039 -0.438120 -0.439988 -2.039018 -0.620719 -0.367423 0.280888 0.073132 -0.385267 -0.369337 -0.102394 0.358434 1.821017 -0.748523 0.000000 0.000000 0.000000 1.647380 4.269545 1.259315 -0.107520 4.506561 1.780704 -0.109367 -4.077521 -1.576250 0.000000 0.000000 0.000000 0.908923 1.338398 2.651624 -0.162593 2.147739 -2.797931 0.034571 -1.478874 0.732523 0.000000 0.000000 0.000000 0.713608 0.010425 -0.225134 0.467681 1.067409 2.647556 0.735769 -2.390386 -0.290572 0.000000 0.000000 0.000000 -0.024136 1.288192 0.195418 0.032358 0.129406 -1.486354 -0.135487 -1.852663 -0.176804 0.000000 0.000000 0.000000 
-1693.547363 858.815918 1096.362061 12.756884 0.072148 -0.424348 -0.434096 -1.974475 -0.601766 -0.364438 0.262297 0.077092 -0.381340 -0.322863 -0.101972 0.356877 1.787761 -0.754723 0.000000 0.000000 0.000000 1.623340 4.229786 1.285604 -0.111359 4.476232 1.725590 -0.108643 -4.086058 -1.574300 0.000000 0.000000 0.000000 1.210814 1.197155 3.219542 -0.207102 2.164545 -3.423511 0.035271 -1.447926 0.743613 0.000000 0.000000 0.000000 0.725813 -0.030637 -0.258088 0.474265 1.092206 2.676747 0.746231 -2.424017 -0.294622 0.000000 0.000000 0.000000 -0.030400 1.246432 0.185410 0.027728 0.154695 -1.495821 -0.141823 -1.862799 -0.180316 0.000000 0.000000 0.000000 
-1693.622192 858.873230 1096.227051 12.738578 0.093868 -0.415074 -0.445873 -1.912839 -0.588634 -0.378891 0.244551 0.077114 -0.394821 -0.289206 -0.099556 0.358246 1.760704 -0.766290 0.000000 0.000000 0.000000 1.658782 4.200165 1.340648 -0.120270 4.474032 1.657624 -0.108101 -4.124823 -1.572282 0.000000 0.000000 0.000000 1.296537 1.178166 3.426259 -0.224488 2.206618 -3.647221 0.030781 -1.516236 0.713607 0.000000 0.000000 0.000000 0.737343 -0.065540 -0.290206 0.480080 1.108939 2.710093 0.755691 -2.446293 -0.296171 0.000000 0.000000 0.000000 -0.028659 1.210297 0.178111 0.031049 0.176882 -1.505519 -0.140436 -1.874540 -0.180413 0.000000 0.000000 0.000000 
-1693.718750 859.026123 1096.333984 12.729446 0.094929 -0.427061 -0.481706 -1.902442 -0.598075 -0.415070 0.232209 0.067756 -0.430266 -0.294817 -0.094224 0.362419 1.801903 -0.766259 0.000000 0.000000 0.000000 1.814966 4.196614 1.456938 -0.137395 4.533997 1.567099 -0.107844 -4.173800 -1.567041 0.000000 0.000000 0.000000 0.931052 1.398727 2.852412 -0.182545 2.277160 -3.010327 0.018887 -1.741988 0.623983 0.000000 0.000000 0.000000 0.741647 -0.074277 -0.304223 0.480347 1.114131 2.745079 0.758820 -2.444250 -0.294248 0.000000 0.000000 0.000000 -0.014534 1.196922 0.185967 0.046663 0.197252 -1.509109 -0.126759 -1.886820 -0.174948 0.000000 0.000000 0.000000 
-1693.766235 859.226807 1096.564941 12.717415 0.095727 -0.443769 -0.535223 -1.894920 -0.613665 -0.468803 0.220812 0.052636 -0.483172 -0.313010 -0.086125 0.367569 1.848498 -0.765817 0.000000 0.000000 0.000000 2.030982 4.202365 1.604309 -0.159663 4.622098 1.461813 -0.107638 -4.252421 -1.560782 0.000000 0.000000 0.000000 0.338309 1.741660 1.913750 -0.113538 2.372444 -1.968426 0.002031 -2.069690 0.495068 0.000000 0.000000 0.000000 0.745470 -0.077101 -0.317041 0.480054 1.111111 2.784230 0.761145 -2.430868 -0.289736 0.000000 0.000000 0.000000 0.007394 1.189223 0.196766 0.069996 0.214101 -1.512593 -0.105543 -1.900537 -0.166141 0.000000 0.000000 0.000000 
